<svg width="35" height="36" viewBox="0 0 35 36" fill="none" xmlns="http://www.w3.org/2000/svg">
<path d="M31.4319 6.00004C31.2994 5.98599 31.1658 5.98599 31.0333 6.00004H3.81105C3.63658 6.0028 3.46327 6.02971 3.29578 6.08004L17.3444 20.47L31.4319 6.00004Z" fill="white" fill-opacity="0.9"/>
<path d="M32.8708 7.39001L18.7152 21.89C18.3509 22.2625 17.8581 22.4716 17.3444 22.4716C16.8307 22.4716 16.3379 22.2625 15.9736 21.89L1.9444 7.50001C1.90127 7.66306 1.8784 7.83106 1.87634 8.00001V28C1.87634 28.5304 2.0812 29.0392 2.44586 29.4142C2.81051 29.7893 3.30509 30 3.82079 30H31.043C31.5587 30 32.0533 29.7893 32.4179 29.4142C32.7826 29.0392 32.9875 28.5304 32.9875 28V8.00001C32.9797 7.79167 32.9404 7.58585 32.8708 7.39001ZM5.15273 28H3.80134V26.57L10.8694 19.36L12.2402 20.77L5.15273 28ZM31.0236 28H29.6625L22.575 20.77L23.9458 19.36L31.0138 26.57L31.0236 28Z" fill="white" fill-opacity="0.9"/>
</svg>
