<svg width="32" height="32" viewBox="0 0 32 32" fill="none" xmlns="http://www.w3.org/2000/svg">
<path d="M13.3015 18.6869C15.263 20.7189 17.6363 22.2876 20.2549 23.283L23.7974 20.4045C23.9024 20.3306 24.0269 20.2911 24.1544 20.2911C24.2819 20.2911 24.4065 20.3306 24.5115 20.4045L31.089 24.7319C31.3387 24.8852 31.5501 25.0957 31.7065 25.3468C31.8628 25.5978 31.9599 25.8826 31.99 26.1785C32.02 26.4745 31.9823 26.7735 31.8798 27.052C31.7772 27.3305 31.6127 27.5808 31.3991 27.7832L28.3171 30.8921C27.8757 31.3374 27.3332 31.6642 26.738 31.8434C26.1429 32.0225 25.5135 32.0484 24.9061 31.9188C18.8475 30.641 13.2631 27.6484 8.79116 23.283C4.41848 18.8743 1.39262 13.2645 0.0806084 7.13425C-0.049001 6.52364 -0.0219497 5.8892 0.159141 5.29241C0.340231 4.69562 0.669219 4.15672 1.11422 3.72793L4.30903 0.580693C4.50673 0.373232 4.74783 0.214131 5.01428 0.115302C5.28073 0.0164742 5.56562 -0.01952 5.84762 0.010015C6.12962 0.03955 6.40143 0.133849 6.64268 0.285851C6.88394 0.437852 7.08839 0.643618 7.24074 0.887741L11.6195 7.51806C11.695 7.62217 11.7358 7.74831 11.7358 7.87788C11.7358 8.00745 11.695 8.13359 11.6195 8.2377L8.73478 11.7783C9.73605 14.3988 11.296 16.7587 13.3015 18.6869Z" fill="white" fill-opacity="0.9"/>
</svg>
