<svg width="70" height="107" viewBox="0 0 70 107" fill="none" xmlns="http://www.w3.org/2000/svg">
<g clip-path="url(#clip0)">
<path d="M17.5 107C27.16 107 35 99.0107 35 89.1667V71.3334H17.5C7.84 71.3334 0 79.3227 0 89.1667C0 99.0107 7.84 107 17.5 107Z" fill="#0ACF83"/>
<path d="M0 53.5C0 43.656 7.84 35.6666 17.5 35.6666H35V71.3333H17.5C7.84 71.3333 0 63.344 0 53.5Z" fill="#A259FF"/>
<path d="M0 17.8333C0 7.98933 7.84 0 17.5 0H35V35.6667H17.5C7.84 35.6667 0 27.6773 0 17.8333Z" fill="#F24E1E"/>
<path d="M35 0H52.5C62.16 0 70 7.98933 70 17.8333C70 27.6773 62.16 35.6667 52.5 35.6667H35V0Z" fill="#FF7262"/>
<path d="M70 53.5C70 63.344 62.16 71.3333 52.5 71.3333C42.84 71.3333 35 63.344 35 53.5C35 43.656 42.84 35.6666 52.5 35.6666C62.16 35.6666 70 43.656 70 53.5Z" fill="#1ABCFE"/>
</g>
<defs>
<clipPath id="clip0">
<rect width="70" height="107" fill="white"/>
</clipPath>
</defs>
</svg>
