<svg width="31" height="32" viewBox="0 0 31 32" fill="none" xmlns="http://www.w3.org/2000/svg">
<path d="M22.3691 0.102667C23.9423 0.177333 25.0299 0.416 26.0348 0.818667C26.9877 1.18641 27.8503 1.76639 28.5613 2.51733C29.2888 3.25132 29.8507 4.14176 30.2069 5.12533C30.597 6.164 30.8282 7.28533 30.9005 8.90933C30.9897 10.9227 31 11.632 31 16C31 20.368 30.9897 21.0773 30.9005 23.0907C30.8282 24.7147 30.597 25.8373 30.2069 26.876C29.8505 27.8591 29.2887 28.7491 28.5613 29.4827C27.8503 30.2336 26.9877 30.8136 26.0348 31.1813C25.0286 31.584 23.9423 31.8227 22.3691 31.8973C20.4187 31.9893 19.7328 32 15.5 32C11.2672 32 10.58 31.9893 8.63092 31.8973C7.05767 31.8227 5.97008 31.584 4.96387 31.1813C4.01148 30.8135 3.14931 30.2335 2.43867 29.4827C1.71119 28.7487 1.14934 27.8582 0.793083 26.8747C0.403 25.836 0.171792 24.7147 0.0994583 23.0907C0.0103333 21.08 0 20.3707 0 16C0 11.6307 0.0103333 10.92 0.0994583 8.90933C0.171792 7.28533 0.403 6.16267 0.793083 5.12533C1.14934 4.14176 1.71119 3.25132 2.43867 2.51733C3.14934 1.76655 4.0115 1.18659 4.96387 0.818667C5.97137 0.416 7.05767 0.177333 8.63092 0.102667C10.5787 0.0106667 11.2659 0 15.5 0C19.7328 0 20.4213 0.0106667 22.3691 0.102667ZM15.5 3.556C11.315 3.556 10.6743 3.56533 8.78721 3.65467C7.58983 3.71067 6.87167 3.868 6.21162 4.13333C5.64975 4.36 5.29196 4.6 4.87346 5.03067C4.45496 5.46267 4.22246 5.832 4.00417 6.412C3.74842 7.092 3.59471 7.83467 3.54046 9.07067C3.45392 11.0187 3.44488 11.68 3.44488 16C3.44488 20.32 3.45392 20.9813 3.54046 22.9293C3.59471 24.1653 3.74712 24.9067 4.00417 25.5867C4.22375 26.168 4.45625 26.5373 4.87346 26.9693C5.29196 27.4013 5.64975 27.6413 6.21162 27.8667C6.87037 28.1307 7.58983 28.2893 8.78721 28.3453C10.6756 28.4347 11.3163 28.444 15.5 28.444C19.685 28.444 20.3244 28.4347 22.2128 28.3453C23.4102 28.2893 24.1283 28.132 24.7884 27.8667C25.3502 27.64 25.708 27.4 26.1265 26.9693C26.545 26.5373 26.7775 26.168 26.9958 25.588C27.2516 24.908 27.4053 24.1653 27.4595 22.9293C27.5461 20.98 27.5551 20.3187 27.5551 16C27.5551 11.6813 27.5461 11.02 27.4595 9.07067C27.4053 7.83467 27.2529 7.09333 26.9958 6.41333C26.8132 5.88944 26.5157 5.41623 26.1265 5.03067C25.7531 4.62895 25.2946 4.32184 24.7871 4.13333C24.1283 3.86933 23.4089 3.71067 22.2115 3.65467C20.3244 3.56533 19.6837 3.556 15.4987 3.556H15.5ZM15.5 24.296C13.3685 24.296 11.3243 23.422 9.81716 21.8662C8.30998 20.3104 7.46325 18.2002 7.46325 16C7.46325 13.7998 8.30998 11.6896 9.81716 10.1338C11.3243 8.57804 13.3685 7.704 15.5 7.704C17.6315 7.704 19.6757 8.57804 21.1828 10.1338C22.69 11.6896 23.5367 13.7998 23.5367 16C23.5367 18.2002 22.69 20.3104 21.1828 21.8662C19.6757 23.422 17.6315 24.296 15.5 24.296ZM15.5 20.7413C16.7182 20.7413 17.8865 20.2418 18.7479 19.3526C19.6092 18.4635 20.0932 17.2575 20.0932 16C20.0932 14.7425 19.6092 13.5365 18.7479 12.6474C17.8865 11.7582 16.7182 11.2587 15.5 11.2587C14.2818 11.2587 13.1135 11.7582 12.2521 12.6474C11.3908 13.5365 10.9068 14.7425 10.9068 16C10.9068 17.2575 11.3908 18.4635 12.2521 19.3526C13.1135 20.2418 14.2818 20.7413 15.5 20.7413ZM23.5367 9.48133C23.0799 9.48133 22.6418 9.29401 22.3188 8.96057C21.9958 8.62713 21.8143 8.17489 21.8143 7.70333C21.8143 7.23178 21.9958 6.77954 22.3188 6.4461C22.6418 6.11266 23.0799 5.92533 23.5367 5.92533C23.9936 5.92533 24.4317 6.11266 24.7547 6.4461C25.0777 6.77954 25.2592 7.23178 25.2592 7.70333C25.2592 8.17489 25.0777 8.62713 24.7547 8.96057C24.4317 9.29401 23.9936 9.48133 23.5367 9.48133Z" fill="white" fill-opacity="0.9"/>
</svg>
