<svg width="109" height="109" viewBox="0 0 109 109" fill="none" xmlns="http://www.w3.org/2000/svg">
<rect width="109" height="109" rx="21" fill="#4B1E1E"/>
<path d="M56.6753 86L52.4829 72.2363H31.4023L27.21 86H14L34.4082 27.9395H49.3979L69.8853 86H56.6753ZM49.5562 61.9531C45.6802 49.4814 43.4917 42.4282 42.9907 40.7935C42.5161 39.1587 42.1733 37.8667 41.9624 36.9175C41.0923 40.2925 38.6006 48.6377 34.4873 61.9531H49.5562ZM75.7388 30.3521C75.7388 26.4233 77.9272 24.459 82.3042 24.459C86.6812 24.459 88.8696 26.4233 88.8696 30.3521C88.8696 32.2241 88.3159 33.6875 87.2085 34.7422C86.1274 35.7705 84.4927 36.2847 82.3042 36.2847C77.9272 36.2847 75.7388 34.3071 75.7388 30.3521ZM88.3159 86H76.2529V41.7822H88.3159V86Z" fill="#FF9900"/>
</svg>
