<svg width="31" height="32" viewBox="0 0 31 32" fill="none" xmlns="http://www.w3.org/2000/svg">
<path d="M9.01712 6C9.91031 6 10.7357 6.07 11.4933 6.28C12.2489 6.42 12.8708 6.712 13.423 7.062C13.9771 7.414 14.3859 7.914 14.6649 8.556C14.9362 9.196 15.0834 9.978 15.0834 10.83C15.0834 11.822 14.8781 12.674 14.3937 13.314C13.9771 13.954 13.2971 14.526 12.462 14.948C13.6361 15.3 14.5293 15.94 15.0738 16.792C15.6182 17.644 15.9669 18.706 15.9669 19.918C15.9669 20.91 15.7635 21.762 15.4147 22.474C15.0668 23.1907 14.5448 23.8019 13.8996 24.248C13.2796 24.678 12.5221 25.028 11.6967 25.24C10.8882 25.4604 10.0567 25.5786 9.22056 25.592L0 25.606V6H9.01712ZM8.46494 13.956C9.22056 13.956 9.84056 13.746 10.3191 13.386C10.7958 13.026 11.0069 12.392 11.0069 11.612C11.0069 11.18 10.9391 10.76 10.8035 10.478C10.6567 10.1922 10.4437 9.94828 10.1835 9.768C9.90243 9.6098 9.602 9.4914 9.29031 9.416C8.94931 9.346 8.60056 9.346 8.19175 9.346H4.20438V13.966C4.20438 13.956 8.46687 13.956 8.46687 13.956H8.46494ZM8.66837 22.342C9.08494 22.342 9.49375 22.272 9.8425 22.202C10.1835 22.132 10.5323 21.99 10.8035 21.77C11.0748 21.55 11.2879 21.34 11.4933 20.99C11.6289 20.638 11.7645 20.208 11.7645 19.708C11.7645 18.716 11.4932 18.004 10.9391 17.504C10.3869 17.074 9.62937 16.864 8.73619 16.864H4.20438V22.332H8.67031V22.342H8.66837ZM21.9557 22.272C22.5099 22.842 23.3333 23.124 24.4319 23.124C25.1875 23.124 25.8773 22.912 26.4314 22.552C26.9836 22.122 27.3226 21.7 27.4582 21.272H30.8295C30.2754 22.974 29.45 24.186 28.3534 24.968C27.2567 25.678 25.9451 26.1 24.3621 26.1C23.3499 26.1046 22.346 25.9112 21.4036 25.53C20.5554 25.2045 19.7985 24.6672 19.2006 23.966C18.5629 23.3122 18.0894 22.5076 17.8211 21.622C17.4821 20.7 17.3367 19.708 17.3367 18.566C17.3367 17.504 17.4724 16.502 17.8211 15.58C18.1699 14.66 18.6465 13.876 19.2684 13.166C19.8884 12.526 20.646 11.954 21.4714 11.602C22.3917 11.2238 23.3735 11.0303 24.3641 11.032C25.5382 11.032 26.567 11.242 27.4602 11.742C28.3514 12.242 29.0431 12.806 29.5953 13.658C30.1475 14.438 30.5563 15.36 30.8373 16.354C30.9729 17.346 31.0407 18.346 30.9729 19.48H20.9948C20.9948 20.64 21.4016 21.7 21.9557 22.272V22.272ZM26.2957 14.808C25.8114 14.308 25.0519 14.026 24.1587 14.026C23.5387 14.026 23.0621 14.166 22.6455 14.378C22.2289 14.588 21.9558 14.878 21.6845 15.158C21.4312 15.4325 21.2627 15.7785 21.2001 16.152C21.1304 16.502 21.0645 16.792 21.0645 17.072H27.2567C27.1211 16.02 26.7724 15.308 26.2938 14.808H26.2957ZM20.2372 7.352H27.9446V9.266H20.2372V7.352V7.352Z" fill="white" fill-opacity="0.9"/>
</svg>
