<svg width="109" height="110" viewBox="0 0 109 110" fill="none" xmlns="http://www.w3.org/2000/svg">
<rect y="1" width="109" height="109" rx="21" fill="#00244E"/>
<path d="M26.5381 55.3877H30.5723C34.3428 55.3877 37.1641 54.6494 39.0361 53.1729C40.9082 51.6699 41.8442 49.4946 41.8442 46.647C41.8442 43.7729 41.0532 41.6504 39.4712 40.2793C37.9155 38.9082 35.4634 38.2227 32.1147 38.2227H26.5381V55.3877ZM54.2236 46.2119C54.2236 52.4346 52.2725 57.1938 48.3701 60.4897C44.4941 63.7856 38.9702 65.4336 31.7983 65.4336H26.5381V86H14.2773V28.1768H32.7476C39.7612 28.1768 45.0874 29.6929 48.7261 32.7251C52.3911 35.731 54.2236 40.2266 54.2236 46.2119ZM95.04 72.8691C95.04 77.4043 93.458 80.8584 90.2939 83.2314C87.1562 85.6045 82.4497 86.791 76.1743 86.791C72.9575 86.791 70.2153 86.5669 67.9478 86.1187C65.6802 85.6968 63.5576 85.064 61.5801 84.2202V74.2534C63.8213 75.3081 66.3394 76.1914 69.1343 76.9033C71.9556 77.6152 74.4341 77.9712 76.5698 77.9712C80.9468 77.9712 83.1353 76.7056 83.1353 74.1743C83.1353 73.2251 82.8452 72.4604 82.2651 71.8804C81.6851 71.2739 80.6831 70.6016 79.2593 69.8633C77.8354 69.0986 75.937 68.2153 73.564 67.2134C70.1626 65.7896 67.6577 64.4712 66.0493 63.2583C64.4673 62.0454 63.3071 60.6611 62.5688 59.1055C61.8569 57.5234 61.501 55.5854 61.501 53.2915C61.501 49.3628 63.0171 46.3306 66.0493 44.1948C69.1079 42.0327 73.4321 40.9517 79.022 40.9517C84.3481 40.9517 89.5293 42.1118 94.5654 44.4321L90.9268 53.1333C88.7119 52.1841 86.6421 51.4062 84.7173 50.7998C82.7925 50.1934 80.8281 49.8901 78.8242 49.8901C75.2646 49.8901 73.4849 50.8525 73.4849 52.7773C73.4849 53.8584 74.0518 54.7944 75.1855 55.5854C76.3457 56.3765 78.8638 57.5498 82.7397 59.1055C86.1938 60.5029 88.7251 61.8081 90.3335 63.021C91.9419 64.2339 93.1284 65.6313 93.8931 67.2134C94.6577 68.7954 95.04 70.6807 95.04 72.8691Z" fill="#00C2FF"/>
</svg>
