<svg width="35" height="36" viewBox="0 0 35 36" fill="none" xmlns="http://www.w3.org/2000/svg">
<g clip-path="url(#clip0)">
<path d="M9.04312 31.5H2.69391V10.4692H9.04312V31.5ZM5.86469 7.6005C3.83469 7.6005 2.1875 5.87025 2.1875 3.78225C2.1875 2.77913 2.57492 1.8171 3.26452 1.1078C3.95413 0.398486 4.88944 0 5.86469 0C6.83994 0 7.77524 0.398486 8.46485 1.1078C9.15446 1.8171 9.54187 2.77913 9.54187 3.78225C9.54187 5.87025 7.89469 7.6005 5.86469 7.6005ZM32.8059 31.5H26.4709V21.2625C26.4709 18.8224 26.4228 15.6937 23.17 15.6937C19.8691 15.6937 19.3627 18.3442 19.3627 21.087V31.5H13.02V10.4692H19.1089V13.338H19.1975C20.0452 11.6854 22.1156 9.94162 25.2044 9.94162C31.6302 9.94162 32.8114 14.2943 32.8114 19.9474V31.5H32.8059Z" fill="white" fill-opacity="0.9"/>
</g>
<defs>
<clipPath id="clip0">
<rect width="35" height="36" fill="white"/>
</clipPath>
</defs>
</svg>
