<svg width="31" height="32" viewBox="0 0 31 32" fill="none" xmlns="http://www.w3.org/2000/svg">
<g clip-path="url(#clip0)">
<path d="M8.35753 1.79639C6.20639 2.9503 4.34709 4.60846 2.92874 6.63792C1.51038 8.66737 0.572418 11.0116 0.190063 13.4828H1.08906C6.88606 13.3441 11.4307 12.8257 15.1424 11.6524C13.5304 8.70199 11.5629 5.80705 9.2028 2.86305L9.20073 2.86092L8.35753 1.79639Z" fill="white" fill-opacity="0.9"/>
<path d="M0.00413333 15.6158L0 15.9998C0 20.3027 1.64507 24.2089 4.3214 27.0846L4.65413 26.3934C4.67262 26.3552 4.69332 26.3181 4.71613 26.2825C8.14267 20.9022 12.0197 17.7022 16.3556 16.2665C16.6491 16.1683 16.9467 16.0787 17.2443 15.9977C16.8971 15.1761 16.527 14.3651 16.1345 13.5657C12.0735 14.9161 7.192 15.4707 1.12427 15.6137H0.0062L0.00413333 15.6158Z" fill="white" fill-opacity="0.9"/>
<path d="M5.91064 28.5719C8.64135 30.7977 12.0206 32.0058 15.5 32.0001C17.3455 32.0001 19.1166 31.6673 20.7555 31.0572V29.5212C20.2512 25.3932 19.3646 21.6065 18.0316 17.9927C17.6803 18.0823 17.331 18.1847 16.9859 18.2977C13.2204 19.5457 9.70091 22.3575 6.47691 27.4028L5.91271 28.5719H5.91064Z" fill="white" fill-opacity="0.9"/>
<path d="M22.8222 30.1055C24.8199 28.9989 26.5587 27.4541 27.9161 25.5796C29.2736 23.7051 30.2169 21.5465 30.6796 19.2554L29.512 18.7114C26.1516 17.6916 23.0206 17.2735 20.1024 17.6127C21.421 21.282 22.3075 25.1348 22.8139 29.3204C22.8201 29.3631 22.8222 29.4058 22.8222 29.4527V30.1055Z" fill="white" fill-opacity="0.9"/>
<path d="M30.967 17.0497C31.2398 12.8592 29.8992 8.72684 27.2367 5.55103L26.6229 6.25289C24.2049 9.28863 21.4438 11.3942 18.0875 12.8278C18.5257 13.7324 18.9349 14.6433 19.3131 15.567C22.7685 15.055 26.4017 15.5372 30.1651 16.687C30.211 16.7008 30.2559 16.718 30.2995 16.7382L30.967 17.0497Z" fill="white" fill-opacity="0.9"/>
<path d="M25.7837 4.02775C22.9509 1.42777 19.2906 -0.00581675 15.5 1.77392e-05C13.6855 1.77392e-05 11.9453 0.320018 10.3271 0.913084L10.7983 1.50615C13.3197 4.64855 15.4111 7.75468 17.1182 10.9312C20.3071 9.60215 22.8346 7.65868 25.0418 4.87895C25.0518 4.86589 25.0622 4.85309 25.0728 4.84055L25.7837 4.02988V4.02775Z" fill="white" fill-opacity="0.9"/>
</g>
<defs>
<clipPath id="clip0">
<rect width="31" height="32" fill="white"/>
</clipPath>
</defs>
</svg>
