<svg width="109" height="109" viewBox="0 0 109 109" fill="none" xmlns="http://www.w3.org/2000/svg">
<rect width="109" height="109" rx="21" fill="#0D0C50"/>
<path d="M45.041 84L41.1074 71.0859H21.3281L17.3945 84H5L24.1484 29.5234H38.2129L57.4355 84H45.041ZM38.3613 61.4375C34.7246 49.7357 32.6712 43.1178 32.2012 41.584C31.7559 40.0501 31.4342 38.8379 31.2363 37.9473C30.4199 41.1139 28.082 48.944 24.2227 61.4375H38.3613ZM80.5918 49.7852C78.1921 49.7852 76.3118 50.5521 74.9512 52.0859C73.5905 53.5951 72.8112 55.7474 72.6133 58.543H88.4961C88.4466 55.7474 87.7168 53.5951 86.3066 52.0859C84.8965 50.5521 82.9915 49.7852 80.5918 49.7852ZM82.1875 84.7422C75.5078 84.7422 70.2878 82.8991 66.5273 79.2129C62.7669 75.5267 60.8867 70.3066 60.8867 63.5527C60.8867 56.6009 62.6185 51.2324 66.082 47.4473C69.5703 43.6374 74.3822 41.7324 80.5176 41.7324C86.3809 41.7324 90.9453 43.4023 94.2109 46.7422C97.4766 50.082 99.1094 54.696 99.1094 60.584V66.0762H72.3535C72.4772 69.2923 73.4297 71.8034 75.2109 73.6094C76.9922 75.4154 79.4909 76.3184 82.707 76.3184C85.2057 76.3184 87.5684 76.0586 89.7949 75.5391C92.0215 75.0195 94.347 74.1908 96.7715 73.0527V81.8105C94.7923 82.8001 92.6771 83.5299 90.4258 84C88.1745 84.4948 85.4284 84.7422 82.1875 84.7422Z" fill="#9D9BFF"/>
</svg>
